# xmcd
#
# Track frame offsets: 
#        150
#        14432
#        30801
#        45753
#        66302
#        82251
#        103962
#        120677
#        134079
#        148257
#
# Disc length: 2165 seconds
#
# Revision: 0
# Processed by: cddbd v1.5.2PL0 Copyright (c) Steve Scherf et al.
# Submitted via: ExactAudioCopy v1.3
#
DISCID=8e08730a
DTITLE=Shelley King - Call Of My Heart
DYEAR=1998
DGENRE=Country, Americana
TTITLE0=High On A Mountain
TTITLE1=Call Of My Heart
TTITLE2=Robyn's Song
TTITLE3=Drivin' By Myself
TTITLE4=Chances Are
TTITLE5=Is There A Reason
TTITLE6=Live Everyday
TTITLE7=Watching The Sun Go Down
TTITLE8=Tennessee Whiskey
TTITLE9=One Way Ticket To Austin
EXTD=
EXTT0=
EXTT1=
EXTT2=
EXTT3=
EXTT4=
EXTT5=
EXTT6=
EXTT7=
EXTT8=
EXTT9=
PLAYORDER=
